<svg id="visual" viewBox="0 0 900 600" width="900" height="600" xmlns="http://www.w3.org/2000/svg" xmlns:xlink="http://www.w3.org/1999/xlink" version="1.1"><rect x="0" y="0" width="900" height="600" fill="#f5f7fa"></rect><path d="M0 478L7.8 476C15.7 474 31.3 470 47.2 468.8C63 467.7 79 469.3 94.8 468.8C110.7 468.3 126.3 465.7 142 457.2C157.7 448.7 173.3 434.3 189.2 438.3C205 442.3 221 464.7 236.8 471.2C252.7 477.7 268.3 468.3 284.2 463.5C300 458.7 316 458.3 331.8 459C347.7 459.7 363.3 461.3 379 457.7C394.7 454 410.3 445 426.2 445.7C442 446.3 458 456.7 473.8 456.8C489.7 457 505.3 447 521 444.8C536.7 442.7 552.3 448.3 568.2 451.5C584 454.7 600 455.3 615.8 460.5C631.7 465.7 647.3 475.3 663.2 473.7C679 472 695 459 710.8 454.7C726.7 450.3 742.3 454.7 758 452.2C773.7 449.7 789.3 440.3 805.2 439C821 437.7 837 444.3 852.8 456C868.7 467.7 884.3 484.3 892.2 492.7L900 501L900 601L892.2 601C884.3 601 868.7 601 852.8 601C837 601 821 601 805.2 601C789.3 601 773.7 601 758 601C742.3 601 726.7 601 710.8 601C695 601 679 601 663.2 601C647.3 601 631.7 601 615.8 601C600 601 584 601 568.2 601C552.3 601 536.7 601 521 601C505.3 601 489.7 601 473.8 601C458 601 442 601 426.2 601C410.3 601 394.7 601 379 601C363.3 601 347.7 601 331.8 601C316 601 300 601 284.2 601C268.3 601 252.7 601 236.8 601C221 601 205 601 189.2 601C173.3 601 157.7 601 142 601C126.3 601 110.7 601 94.8 601C79 601 63 601 47.2 601C31.3 601 15.7 601 7.8 601L0 601Z" fill="#f5f7fa"></path><path d="M0 507L7.8 507.2C15.7 507.3 31.3 507.7 47.2 503.2C63 498.7 79 489.3 94.8 488.2C110.7 487 126.3 494 142 487.5C157.7 481 173.3 461 189.2 458.5C205 456 221 471 236.8 479C252.7 487 268.3 488 284.2 489.7C300 491.3 316 493.7 331.8 486.5C347.7 479.3 363.3 462.7 379 458.8C394.7 455 410.3 464 426.2 464.8C442 465.7 458 458.3 473.8 453.3C489.7 448.3 505.3 445.7 521 453.5C536.7 461.3 552.3 479.7 568.2 481.5C584 483.3 600 468.7 615.8 460.8C631.7 453 647.3 452 663.2 452C679 452 695 453 710.8 455.2C726.7 457.3 742.3 460.7 758 468C773.7 475.3 789.3 486.7 805.2 490.2C821 493.7 837 489.3 852.8 485.7C868.7 482 884.3 479 892.2 477.5L900 476L900 601L892.2 601C884.3 601 868.7 601 852.8 601C837 601 821 601 805.2 601C789.3 601 773.7 601 758 601C742.3 601 726.7 601 710.8 601C695 601 679 601 663.2 601C647.3 601 631.7 601 615.8 601C600 601 584 601 568.2 601C552.3 601 536.7 601 521 601C505.3 601 489.7 601 473.8 601C458 601 442 601 426.2 601C410.3 601 394.7 601 379 601C363.3 601 347.7 601 331.8 601C316 601 300 601 284.2 601C268.3 601 252.7 601 236.8 601C221 601 205 601 189.2 601C173.3 601 157.7 601 142 601C126.3 601 110.7 601 94.8 601C79 601 63 601 47.2 601C31.3 601 15.7 601 7.8 601L0 601Z" fill="#e2e6ed"></path><path d="M0 486L7.8 488.2C15.7 490.3 31.3 494.7 47.2 495.8C63 497 79 495 94.8 494.3C110.7 493.7 126.3 494.3 142 491.5C157.7 488.7 173.3 482.3 189.2 485C205 487.7 221 499.3 236.8 503.3C252.7 507.3 268.3 503.7 284.2 500.3C300 497 316 494 331.8 496.2C347.7 498.3 363.3 505.7 379 504.7C394.7 503.7 410.3 494.3 426.2 489.5C442 484.7 458 484.3 473.8 486.3C489.7 488.3 505.3 492.7 521 495.8C536.7 499 552.3 501 568.2 505C584 509 600 515 615.8 513.3C631.7 511.7 647.3 502.3 663.2 499.2C679 496 695 499 710.8 493.7C726.7 488.3 742.3 474.7 758 477C773.7 479.3 789.3 497.7 805.2 498.3C821 499 837 482 852.8 477.2C868.7 472.3 884.3 479.7 892.2 483.3L900 487L900 601L892.2 601C884.3 601 868.7 601 852.8 601C837 601 821 601 805.2 601C789.3 601 773.7 601 758 601C742.3 601 726.7 601 710.8 601C695 601 679 601 663.2 601C647.3 601 631.7 601 615.8 601C600 601 584 601 568.2 601C552.3 601 536.7 601 521 601C505.3 601 489.7 601 473.8 601C458 601 442 601 426.2 601C410.3 601 394.7 601 379 601C363.3 601 347.7 601 331.8 601C316 601 300 601 284.2 601C268.3 601 252.7 601 236.8 601C221 601 205 601 189.2 601C173.3 601 157.7 601 142 601C126.3 601 110.7 601 94.8 601C79 601 63 601 47.2 601C31.3 601 15.7 601 7.8 601L0 601Z" fill="#cfd5e0"></path><path d="M0 518L7.8 516.7C15.7 515.3 31.3 512.7 47.2 513.5C63 514.3 79 518.7 94.8 521.2C110.7 523.7 126.3 524.3 142 519.7C157.7 515 173.3 505 189.2 500.7C205 496.3 221 497.7 236.8 496.5C252.7 495.3 268.3 491.7 284.2 490.5C300 489.3 316 490.7 331.8 490.2C347.7 489.7 363.3 487.3 379 492.8C394.7 498.3 410.3 511.7 426.2 515.7C442 519.7 458 514.3 473.8 513.7C489.7 513 505.3 517 521 514.3C536.7 511.7 552.3 502.3 568.2 497.8C584 493.3 600 493.7 615.8 500.5C631.7 507.3 647.3 520.7 663.2 522C679 523.3 695 512.7 710.8 511.5C726.7 510.3 742.3 518.7 758 518.2C773.7 517.7 789.3 508.3 805.2 505.8C821 503.3 837 507.7 852.8 508.8C868.7 510 884.3 508 892.2 507L900 506L900 601L892.2 601C884.3 601 868.7 601 852.8 601C837 601 821 601 805.2 601C789.3 601 773.7 601 758 601C742.3 601 726.7 601 710.8 601C695 601 679 601 663.2 601C647.3 601 631.7 601 615.8 601C600 601 584 601 568.2 601C552.3 601 536.7 601 521 601C505.3 601 489.7 601 473.8 601C458 601 442 601 426.2 601C410.3 601 394.7 601 379 601C363.3 601 347.7 601 331.8 601C316 601 300 601 284.2 601C268.3 601 252.7 601 236.8 601C221 601 205 601 189.2 601C173.3 601 157.7 601 142 601C126.3 601 110.7 601 94.8 601C79 601 63 601 47.2 601C31.3 601 15.7 601 7.8 601L0 601Z" fill="#bdc4d3"></path><path d="M0 531L7.8 528.5C15.7 526 31.3 521 47.2 522.7C63 524.3 79 532.7 94.8 534.7C110.7 536.7 126.3 532.3 142 531.5C157.7 530.7 173.3 533.3 189.2 530C205 526.7 221 517.3 236.8 513.8C252.7 510.3 268.3 512.7 284.2 518.5C300 524.3 316 533.7 331.8 536C347.7 538.3 363.3 533.7 379 532.3C394.7 531 410.3 533 426.2 534.3C442 535.7 458 536.3 473.8 533.3C489.7 530.3 505.3 523.7 521 518.2C536.7 512.7 552.3 508.3 568.2 507.2C584 506 600 508 615.8 510.2C631.7 512.3 647.3 514.7 663.2 519.7C679 524.7 695 532.3 710.8 535.8C726.7 539.3 742.3 538.7 758 535.3C773.7 532 789.3 526 805.2 526.5C821 527 837 534 852.8 534.3C868.7 534.7 884.3 528.3 892.2 525.2L900 522L900 601L892.2 601C884.3 601 868.7 601 852.8 601C837 601 821 601 805.2 601C789.3 601 773.7 601 758 601C742.3 601 726.7 601 710.8 601C695 601 679 601 663.2 601C647.3 601 631.7 601 615.8 601C600 601 584 601 568.2 601C552.3 601 536.7 601 521 601C505.3 601 489.7 601 473.8 601C458 601 442 601 426.2 601C410.3 601 394.7 601 379 601C363.3 601 347.7 601 331.8 601C316 601 300 601 284.2 601C268.3 601 252.7 601 236.8 601C221 601 205 601 189.2 601C173.3 601 157.7 601 142 601C126.3 601 110.7 601 94.8 601C79 601 63 601 47.2 601C31.3 601 15.7 601 7.8 601L0 601Z" fill="#adb2c6"></path><path d="M0 547L7.8 547.5C15.7 548 31.3 549 47.2 547.8C63 546.7 79 543.3 94.8 543C110.7 542.7 126.3 545.3 142 546.2C157.7 547 173.3 546 189.2 546.3C205 546.7 221 548.3 236.8 547.2C252.7 546 268.3 542 284.2 541C300 540 316 542 331.8 543.2C347.7 544.3 363.3 544.7 379 544.8C394.7 545 410.3 545 426.2 547C442 549 458 553 473.8 554.2C489.7 555.3 505.3 553.7 521 552.3C536.7 551 552.3 550 568.2 548.8C584 547.7 600 546.3 615.8 547.5C631.7 548.7 647.3 552.3 663.2 550.8C679 549.3 695 542.7 710.8 538.7C726.7 534.7 742.3 533.3 758 532.3C773.7 531.3 789.3 530.7 805.2 534C821 537.3 837 544.7 852.8 545.7C868.7 546.7 884.3 541.3 892.2 538.7L900 536L900 601L892.2 601C884.3 601 868.7 601 852.8 601C837 601 821 601 805.2 601C789.3 601 773.7 601 758 601C742.3 601 726.7 601 710.8 601C695 601 679 601 663.2 601C647.3 601 631.7 601 615.8 601C600 601 584 601 568.2 601C552.3 601 536.7 601 521 601C505.3 601 489.7 601 473.8 601C458 601 442 601 426.2 601C410.3 601 394.7 601 379 601C363.3 601 347.7 601 331.8 601C316 601 300 601 284.2 601C268.3 601 252.7 601 236.8 601C221 601 205 601 189.2 601C173.3 601 157.7 601 142 601C126.3 601 110.7 601 94.8 601C79 601 63 601 47.2 601C31.3 601 15.7 601 7.8 601L0 601Z" fill="#9da1b9"></path><path d="M0 560L7.8 558.2C15.7 556.3 31.3 552.7 47.2 551.7C63 550.7 79 552.3 94.8 551.5C110.7 550.7 126.3 547.3 142 550C157.7 552.7 173.3 561.3 189.2 561.5C205 561.7 221 553.3 236.8 553.3C252.7 553.3 268.3 561.7 284.2 565.5C300 569.3 316 568.7 331.8 568.3C347.7 568 363.3 568 379 564.5C394.7 561 410.3 554 426.2 550C442 546 458 545 473.8 546.5C489.7 548 505.3 552 521 554.5C536.7 557 552.3 558 568.2 558.8C584 559.7 600 560.3 615.8 561.7C631.7 563 647.3 565 663.2 565.8C679 566.7 695 566.3 710.8 564.5C726.7 562.7 742.3 559.3 758 557.2C773.7 555 789.3 554 805.2 555.5C821 557 837 561 852.8 563.8C868.7 566.7 884.3 568.3 892.2 569.2L900 570L900 601L892.2 601C884.3 601 868.7 601 852.8 601C837 601 821 601 805.2 601C789.3 601 773.7 601 758 601C742.3 601 726.7 601 710.8 601C695 601 679 601 663.2 601C647.3 601 631.7 601 615.8 601C600 601 584 601 568.2 601C552.3 601 536.7 601 521 601C505.3 601 489.7 601 473.8 601C458 601 442 601 426.2 601C410.3 601 394.7 601 379 601C363.3 601 347.7 601 331.8 601C316 601 300 601 284.2 601C268.3 601 252.7 601 236.8 601C221 601 205 601 189.2 601C173.3 601 157.7 601 142 601C126.3 601 110.7 601 94.8 601C79 601 63 601 47.2 601C31.3 601 15.7 601 7.8 601L0 601Z" fill="#8e91ac"></path><path d="M0 577L7.8 576.8C15.7 576.7 31.3 576.3 47.2 575C63 573.7 79 571.3 94.8 570.8C110.7 570.3 126.3 571.7 142 574C157.7 576.3 173.3 579.7 189.2 578.7C205 577.7 221 572.3 236.8 569C252.7 565.7 268.3 564.3 284.2 564.3C300 564.3 316 565.7 331.8 566.3C347.7 567 363.3 567 379 568.5C394.7 570 410.3 573 426.2 574.8C442 576.7 458 577.3 473.8 575.8C489.7 574.3 505.3 570.7 521 568.7C536.7 566.7 552.3 566.3 568.2 566.7C584 567 600 568 615.8 569.2C631.7 570.3 647.3 571.7 663.2 572.2C679 572.7 695 572.3 710.8 572.8C726.7 573.3 742.3 574.7 758 573.2C773.7 571.7 789.3 567.3 805.2 567.8C821 568.3 837 573.7 852.8 575.5C868.7 577.3 884.3 575.7 892.2 574.8L900 574L900 601L892.2 601C884.3 601 868.7 601 852.8 601C837 601 821 601 805.2 601C789.3 601 773.7 601 758 601C742.3 601 726.7 601 710.8 601C695 601 679 601 663.2 601C647.3 601 631.7 601 615.8 601C600 601 584 601 568.2 601C552.3 601 536.7 601 521 601C505.3 601 489.7 601 473.8 601C458 601 442 601 426.2 601C410.3 601 394.7 601 379 601C363.3 601 347.7 601 331.8 601C316 601 300 601 284.2 601C268.3 601 252.7 601 236.8 601C221 601 205 601 189.2 601C173.3 601 157.7 601 142 601C126.3 601 110.7 601 94.8 601C79 601 63 601 47.2 601C31.3 601 15.7 601 7.8 601L0 601Z" fill="#80809f"></path></svg>